<svg xmlns="http://www.w3.org/2000/svg" viewBox="0 0 168 168">
  <rect x="4" y="4" width="160" height="160" rx="36" fill="#f4cd4b" stroke="#1d1b17" stroke-width="8"/>
  <circle cx="56" cy="66" r="20" fill="#fff" stroke="#1d1b17" stroke-width="4"/>
  <circle cx="65" cy="71" r="8" fill="#1d1b17"/>
  <circle cx="112" cy="64" r="24" fill="#fff" stroke="#1d1b17" stroke-width="4"/>
  <circle cx="107" cy="71" r="9" fill="#1d1b17"/>
  <path d="M40 104H65.4A18.6 18.6 0 0 1 84 122.6A3.4 3.4 0 0 1 80.6 126H58.6A18.6 18.6 0 0 1 40 107.4Z" fill="#1d1b17"/>
  <path d="M128 104V107.4A18.6 18.6 0 0 1 109.4 126H87.4A3.4 3.4 0 0 1 84 122.6A18.6 18.6 0 0 1 102.6 104Z" fill="#1d1b17"/>
</svg>
